# xmcd CD database file
#
# Track frame offsets:
#	150
#	19109
#	37635
#	52257
#	71676
#	91469
#	110014
#	126111
#	142232
#	158483
#	177143
#	194698
#
# Disc length: 2866 seconds
#
# Revision: 1
# Processed by: cddbd v1.5.2PL0 Copyright (c) Steve Scherf et al.
# Submitted via: CDex 1.51
#
DISCID=a90b300c
DTITLE=Enya - Paint The Sky blue
DYEAR=1900
DGENRE=New Age
TTITLE0=Orion Flow
TTITLE1=Anywhere Is
TTITLE2=Only If
TTITLE3=Memory Of Trees
TTITLE4=How Can I Keep From Singing
TTITLE5=Paint The Sky With Stars
TTITLE6=Only Time
TTITLE7=Marble Halls
TTITLE8=Wild Child
TTITLE9=Flora's Secret
TTITLE10=One By One
TTITLE11=China Roses
EXTD=
EXTT0=
EXTT1=
EXTT2=
EXTT3=
EXTT4=
EXTT5=
EXTT6=
EXTT7=
EXTT8=
EXTT9=
EXTT10=
EXTT11=
PLAYORDER=
